<svg width="449" height="79" viewBox="0 0 449 79" fill="none" xmlns="http://www.w3.org/2000/svg" role="img" aria-label="Passly">
  <defs>
    <linearGradient id="passlyShieldWhite" x1="5" y1="7" x2="56" y2="72" gradientUnits="userSpaceOnUse">
      <stop stop-color="#17413F"/>
      <stop offset="1" stop-color="#8BBF45"/>
    </linearGradient>
  </defs>
  <g transform="translate(-16.864 -7.773) scale(0.29545)">
    <path d="M160 50L246 84V146C246 201 211 244 160 270C109 244 74 201 74 146V84L160 50Z" fill="url(#passlyShieldWhite)"/>
    <path d="M118 143L160 111L202 143L160 211L118 143Z" fill="#FAFBF7" opacity=".96"/>
    <circle cx="118" cy="143" r="15" fill="#17413F"/>
    <circle cx="160" cy="111" r="15" fill="#17413F"/>
    <circle cx="202" cy="143" r="15" fill="#17413F"/>
    <circle cx="160" cy="211" r="15" fill="#17413F"/>
    <path d="M118 143L160 111L202 143M118 143L160 211L202 143" fill="none" stroke="#8BBF45" stroke-width="8" stroke-linecap="round" stroke-linejoin="round"/>
  </g>
  <text x="76" y="55" font-family="Arial, Avenir Next, Segoe UI, sans-serif" font-size="48" font-weight="700" fill="#FFFFFF">Passly</text>
</svg>
